<?xml version="1.0" encoding="UTF-8"?>
<svg id="b" data-name="Warstwa 2" xmlns="http://www.w3.org/2000/svg" width="64.73" height="36.31" viewBox="0 0 64.73 36.31">
  <defs>
    <style>
      .d {
        fill: #dd8f8c;
      }

      .e {
        fill: #d16b7d;
      }

      .f {
        fill: #f7decb;
      }

      .g {
        fill: #5d6982;
      }

      .h {
        fill: #ffeee3;
      }
    </style>
  </defs>
  <g id="c" data-name="OBJECTS">
    <g>
      <g>
        <g>
          <path class="h" d="M64.41,19.4c.22.39.32.82.32,1.23,0,.69-.28,1.37-.82,1.86-.53.48-.82,1.16-.82,1.86,0,.16.02.33.05.5.03.17.05.34.05.5,0,.97-.56,1.88-1.47,2.29-.4.18-.74.46-.99.81-.25.35-.42.75-.46,1.19-.07.58-.33,1.1-.72,1.49-.39.39-.91.66-1.49.72-.44.05-.85.21-1.19.46-.34.25-.62.59-.81.99-.42.91-1.33,1.47-2.3,1.47-.16,0-.33-.02-.5-.05-.17-.03-.34-.05-.5-.05-.7,0-1.37.29-1.85.81-.5.53-1.17.82-1.86.82-.42,0-.85-.11-1.23-.32-.38-.22-.81-.32-1.24-.32s-.85.11-1.24.32c-.39.22-.81.32-1.23.32-.69,0-1.37-.28-1.86-.82-.48-.52-1.16-.81-1.85-.81-.16,0-.33.02-.5.05-.16.03-.33.05-.5.05-.97,0-1.88-.56-2.3-1.47-.19-.4-.47-.74-.81-.99-.35-.25-.75-.41-1.19-.46-.58-.07-1.1-.33-1.49-.72s-.66-.91-.72-1.49c-.05-.44-.22-.85-.46-1.19-.25-.35-.59-.63-.99-.81-.91-.42-1.47-1.33-1.47-2.3,0-.16.02-.33.05-.5.03-.16.05-.33.05-.5,0-.7-.29-1.37-.81-1.85-.53-.5-.82-1.17-.82-1.86,0-.42.11-.85.32-1.23.21-.38.32-.81.32-1.24s-.11-.85-.32-1.24c-.22-.39-.32-.81-.32-1.23,0-.69.28-1.37.82-1.86.52-.48.81-1.16.81-1.85,0-.17-.02-.34-.05-.5-.03-.16-.05-.33-.05-.5,0-.97.56-1.88,1.47-2.3.4-.18.74-.46.99-.81.25-.35.42-.75.46-1.19.07-.58.33-1.1.72-1.49.39-.39.91-.66,1.49-.72.44-.05.85-.21,1.19-.46.34-.25.62-.59.81-.99.42-.91,1.32-1.47,2.29-1.47.16,0,.33.02.5.05.16.03.33.05.5.05.7,0,1.38-.29,1.86-.82.5-.53,1.17-.82,1.86-.82.42,0,.85.11,1.23.32.38.22.81.32,1.24.32s.85-.11,1.24-.32c1.02-.57,2.3-.37,3.1.49.48.53,1.16.82,1.86.82.16,0,.33-.02.5-.05.17-.03.34-.05.5-.05.97,0,1.88.56,2.29,1.47.19.4.47.74.81.99.35.25.75.41,1.19.46.58.07,1.1.33,1.49.72s.66.91.72,1.49c.05.44.22.85.46,1.19.25.35.59.63.99.81.91.42,1.47,1.32,1.47,2.29,0,.16-.02.33-.05.5-.03.16-.05.33-.05.5,0,.7.29,1.38.82,1.86.53.5.82,1.17.82,1.86,0,.42-.11.85-.32,1.23-.21.38-.32.81-.32,1.24s.11.85.32,1.24Z"/>
          <circle class="d" cx="46.58" cy="18.16" r="14.8"/>
          <circle class="e" cx="46.58" cy="18.16" r="12.64"/>
          <circle class="f" cx="46.58" cy="18.16" r="4.26"/>
        </g>
        <path class="d" d="M37.42,12.33c.14-.2-.15-.43-.29-.24-1.9,2.71-2.43,6.25-1.54,9.43.25.9.63,1.76,1.11,2.56.12.21.42-.01.3-.22-1.63-2.73-1.9-6.2-.81-9.18.31-.83.71-1.63,1.22-2.36Z"/>
        <path class="d" d="M37.99,23.15c-.54-.62-.84-1.45-.78-2.28.02-.24-.35-.3-.37-.06-.06.93.24,1.85.85,2.56.16.18.46-.04.3-.22Z"/>
        <path class="d" d="M55.85,11.57c-.55-.81-1.21-1.54-1.96-2.17-.18-.16-.42.13-.24.29,2.57,2.2,4.01,5.58,3.94,8.95-.02.95-.17,1.89-.43,2.79-.07.23.3.29.37.06.96-3.34.27-7.06-1.69-9.92Z"/>
      </g>
      <g>
        <path class="g" d="M25.24,8.53c-1.03-1.61-2.66-2.9-4.47-2.15-.81.43-1.1,1.15-1.83,2-.87,1.21-2.58,1.98-4.03,1.34-1.94-.68-2.67-2.85-3.87-4.22-.79-.8-2.02-1.23-2.81-.12-.6.86-1.8,2.29-3.13,1.41-.96-.59-1.1-1.94-2.16-2.28-1.18-.18-1.09,1.76-2.19,1.89-.36.03-.82-.24-.73-.64-.03.18.08.35.23.44,1.04.5,1.23-.95,1.67-1.58.53-.83,1.59-.56,2.16.06.5.49.83,1.17,1.4,1.48,1.37.56,1.72-1.8,2.81-2.33,1.2-.76,2.78-.24,3.75.6,1.38,1.07,2.2,3.59,4.11,3.43.43-.13.67-.45.95-.86.34-.51.67-1.18,1.24-1.89,1.2-1.55,3.46-2.07,5.31-1.58,1.78.46,3.2,1.65,4.29,3.02,0,0-2.71,1.98-2.71,1.98h0Z"/>
        <ellipse class="d" cx="27.65" cy="8.28" rx="3.65" ry="2.35" transform="translate(7.32 28.77) rotate(-61.91)"/>
        <ellipse class="e" cx="30.06" cy="9.57" rx="5" ry="3.23" transform="translate(7.46 31.58) rotate(-61.91)"/>
        <path class="g" d="M30.52,16.96c-3.18-1.69-2.28-4.53-.59-7.7,1.69-3.18,3.55-5.49,6.72-3.8s6.93,7.01,5.24,10.18-8.2,3.01-11.37,1.32Z"/>
      </g>
    </g>
  </g>
</svg>